<?xml version="1.0" encoding="UTF-8"?>
<svg xmlns="http://www.w3.org/2000/svg" viewBox="0 0 24 24" width="24px" height="24px">
<g id="surface38330862">
<path style=" stroke:none;fill-rule:nonzero;fill:rgb(12.54902%,58.431375%,69.803923%);fill-opacity:1;" d="M 12 0 C 5.371094 0 0 5.371094 0 12 C 0 18.015625 4.433594 22.984375 10.207031 23.851562 L 10.207031 15.179688 L 7.238281 15.179688 L 7.238281 12.027344 L 10.207031 12.027344 L 10.207031 9.925781 C 10.207031 6.453125 11.898438 4.925781 14.785156 4.925781 C 16.171875 4.925781 16.902344 5.03125 17.246094 5.074219 L 17.246094 7.828125 L 15.277344 7.828125 C 14.050781 7.828125 13.625 8.992188 13.625 10.300781 L 13.625 12.027344 L 17.21875 12.027344 L 16.730469 15.179688 L 13.625 15.179688 L 13.625 23.878906 C 19.480469 23.082031 24 18.074219 24 12 C 24 5.371094 18.628906 0 12 0 Z M 12 0 "/>
</g>
</svg>
